{
  "accessors": [
    {
      "bufferView": 2,
      "componentType": 5126,
      "count": 12344,
      "max": [
        0.0917000025510788,
        0.1216149628162384,
        0.12469858676195145
      ],
      "min": [
        -0.0917000025510788,
        -0.10835906863212585,
        0.0
      ],
      "type": "VEC3"
    },
    {
      "bufferView": 2,
      "byteOffset": 148128,
      "componentType": 5126,
      "count": 12344,
      "max": [
        1.0,
        1.0,
        1.0
      ],
      "min": [
        -1.0,
        -1.0,
        -1.0
      ],
      "type": "VEC3"
    },
    {
      "bufferView": 3,
      "componentType": 5126,
      "count": 12344,
      "max": [
        1.0,
        1.0,
        1.0,
        1.0
      ],
      "min": [
        -1.0,
        -1.0,
        -1.0,
        -1.0
      ],
      "type": "VEC4"
    },
    {
      "bufferView": 1,
      "componentType": 5126,
      "count": 12344,
      "max": [
        0.9974430203437805,
        0.9975013732910156
      ],
      "min": [
        0.0024982690811157227,
        0.002498079789802432
      ],
      "type": "VEC2"
    },
    {
      "bufferView": 0,
      "componentType": 5125,
      "count": 35400,
      "type": "SCALAR"
    },
    {
      "bufferView": 2,
      "byteOffset": 296256,
      "componentType": 5126,
      "count": 276,
      "max": [
        0.0689999982714653,
        0.06399999558925629,
        0.22200000286102295
      ],
      "min": [
        -0.0689999982714653,
        -0.07521698623895645,
        1.979060471057892e-09
      ],
      "type": "VEC3"
    },
    {
      "bufferView": 2,
      "byteOffset": 299568,
      "componentType": 5126,
      "count": 276,
      "max": [
        1.0,
        1.0,
        1.0
      ],
      "min": [
        -1.0,
        -1.0,
        -1.0
      ],
      "type": "VEC3"
    },
    {
      "bufferView": 3,
      "byteOffset": 197504,
      "componentType": 5126,
      "count": 276,
      "max": [
        1.0,
        1.0,
        1.0,
        1.0
      ],
      "min": [
        -1.0,
        -1.0,
        -1.0,
        1.0
      ],
      "type": "VEC4"
    },
    {
      "bufferView": 1,
      "byteOffset": 98752,
      "componentType": 5126,
      "count": 276,
      "max": [
        0.9964407682418823,
        0.8709668517112732
      ],
      "min": [
        0.0035712122917175293,
        0.003561813849955797
      ],
      "type": "VEC2"
    },
    {
      "bufferView": 1,
      "byteOffset": 100960,
      "componentType": 5126,
      "count": 276,
      "max": [
        0.9964407682418823,
        0.8709668517112732
      ],
      "min": [
        0.0035712122917175293,
        0.003561813849955797
      ],
      "type": "VEC2"
    },
    {
      "bufferView": 0,
      "byteOffset": 141600,
      "componentType": 5125,
      "count": 768,
      "type": "SCALAR"
    },
    {
      "bufferView": 2,
      "byteOffset": 302880,
      "componentType": 5126,
      "count": 276,
      "max": [
        0.0689999982714653,
        0.06399999558925629,
        0.22200000286102295
      ],
      "min": [
        -0.0689999982714653,
        -0.07521698623895645,
        1.979060471057892e-09
      ],
      "type": "VEC3"
    },
    {
      "bufferView": 2,
      "byteOffset": 306192,
      "componentType": 5126,
      "count": 276,
      "max": [
        1.0,
        1.0,
        1.0
      ],
      "min": [
        -1.0,
        -1.0,
        -1.0
      ],
      "type": "VEC3"
    },
    {
      "bufferView": 3,
      "byteOffset": 201920,
      "componentType": 5126,
      "count": 276,
      "max": [
        1.0,
        1.0,
        1.0,
        1.0
      ],
      "min": [
        -1.0,
        -1.0,
        -1.0,
        1.0
      ],
      "type": "VEC4"
    },
    {
      "bufferView": 1,
      "byteOffset": 103168,
      "componentType": 5126,
      "count": 276,
      "max": [
        0.9964407682418823,
        0.8709668517112732
      ],
      "min": [
        0.0035712122917175293,
        0.003561813849955797
      ],
      "type": "VEC2"
    },
    {
      "bufferView": 1,
      "byteOffset": 105376,
      "componentType": 5126,
      "count": 276,
      "max": [
        0.9964407682418823,
        0.8709668517112732
      ],
      "min": [
        0.0035712122917175293,
        0.003561813849955797
      ],
      "type": "VEC2"
    },
    {
      "bufferView": 0,
      "byteOffset": 144672,
      "componentType": 5125,
      "count": 768,
      "type": "SCALAR"
    }
  ],
  "asset": {
    "extras": {
      "author": "AleixoAlonso (https://sketchfab.com/AleixoAlonso)",
      "license": "CC-BY-4.0 (http://creativecommons.org/licenses/by/4.0/)",
      "source": "https://sketchfab.com/3d-models/panasonic-sa-pm02-stereo-system-e6b0d376c49d4d4c9ce7c1502661c8e4",
      "title": "Panasonic SA-PM02 Stereo System"
    },
    "generator": "Sketchfab-15.12.0",
    "version": "2.0"
  },
  "bufferViews": [
    {
      "buffer": 0,
      "byteLength": 147744,
      "name": "floatBufferViews",
      "target": 34963
    },
    {
      "buffer": 0,
      "byteLength": 107584,
      "byteOffset": 147744,
      "byteStride": 8,
      "name": "floatBufferViews",
      "target": 34962
    },
    {
      "buffer": 0,
      "byteLength": 309504,
      "byteOffset": 255328,
      "byteStride": 12,
      "name": "floatBufferViews",
      "target": 34962
    },
    {
      "buffer": 0,
      "byteLength": 206336,
      "byteOffset": 564832,
      "byteStride": 16,
      "name": "floatBufferViews",
      "target": 34962
    }
  ],
  "buffers": [
    {
      "byteLength": 771168,
      "uri": "scene.bin"
    }
  ],
  "extensionsUsed": [
    "KHR_materials_transmission"
  ],
  "images": [
    {
      "uri": "textures/panasonic_sa-pm02-player_baseColor.png"
    },
    {
      "uri": "textures/panasonic_sa-pm02-player_metallicRoughness.png"
    },
    {
      "uri": "textures/panasonic_sa-pm02-player_emissive.jpeg"
    },
    {
      "uri": "textures/panasonic_sa-pm02-player_normal.jpeg"
    },
    {
      "uri": "textures/panasonic_sa-pm02-player_transmission.png"
    },
    {
      "uri": "textures/panasonic_sa-pm02-speaker_baseColor.jpeg"
    },
    {
      "uri": "textures/panasonic_sa-pm02-speaker_metallicRoughness.png"
    },
    {
      "uri": "textures/panasonic_sa-pm02-speaker_normal.jpeg"
    }
  ],
  "materials": [
    {
      "alphaMode": "BLEND",
      "doubleSided": true,
      "emissiveFactor": [
        1.0,
        1.0,
        1.0
      ],
      "emissiveTexture": {
        "index": 2
      },
      "extensions": {
        "KHR_materials_transmission": {
          "transmissionFactor": 1.0,
          "transmissionTexture": {
            "index": 4
          }
        }
      },
      "name": "panasonic_sa-pm02-player",
      "normalTexture": {
        "index": 3
      },
      "occlusionTexture": {
        "index": 1
      },
      "pbrMetallicRoughness": {
        "baseColorTexture": {
          "index": 0
        },
        "metallicRoughnessTexture": {
          "index": 1
        }
      }
    },
    {
      "doubleSided": true,
      "name": "panasonic_sa-pm02-speaker",
      "normalTexture": {
        "index": 7
      },
      "occlusionTexture": {
        "index": 6
      },
      "pbrMetallicRoughness": {
        "baseColorTexture": {
          "index": 5
        },
        "metallicRoughnessTexture": {
          "index": 6
        }
      }
    }
  ],
  "meshes": [
    {
      "name": "panasonic_sa-pm02_player_panasonic_sa-pm02-player_0",
      "primitives": [
        {
          "attributes": {
            "NORMAL": 1,
            "POSITION": 0,
            "TANGENT": 2,
            "TEXCOORD_0": 3
          },
          "indices": 4,
          "material": 0,
          "mode": 4
        }
      ]
    },
    {
      "name": "panasonic_sa-pm02_speaker-l_panasonic_sa-pm02-speaker_0",
      "primitives": [
        {
          "attributes": {
            "NORMAL": 6,
            "POSITION": 5,
            "TANGENT": 7,
            "TEXCOORD_0": 8,
            "TEXCOORD_1": 9
          },
          "indices": 10,
          "material": 1,
          "mode": 4
        }
      ]
    },
    {
      "name": "panasonic_sa-pm02_speaker-r_panasonic_sa-pm02-speaker_0",
      "primitives": [
        {
          "attributes": {
            "NORMAL": 12,
            "POSITION": 11,
            "TANGENT": 13,
            "TEXCOORD_0": 14,
            "TEXCOORD_1": 15
          },
          "indices": 16,
          "material": 1,
          "mode": 4
        }
      ]
    }
  ],
  "nodes": [
    {
      "children": [
        1
      ],
      "matrix": [
        1.0,
        0.0,
        0.0,
        0.0,
        0.0,
        2.220446049250313e-16,
        -1.0,
        0.0,
        0.0,
        1.0,
        2.220446049250313e-16,
        0.0,
        0.0,
        0.0,
        0.0,
        1.0
      ],
      "name": "Sketchfab_model"
    },
    {
      "children": [
        2
      ],
      "matrix": [
        1.0,
        0.0,
        0.0,
        0.0,
        0.0,
        0.0,
        1.0,
        0.0,
        0.0,
        -1.0,
        0.0,
        0.0,
        0.0,
        0.0,
        0.0,
        1.0
      ],
      "name": "Panasonic_SA-PM02.fbx"
    },
    {
      "children": [
        3
      ],
      "name": "RootNode"
    },
    {
      "children": [
        4,
        5,
        7
      ],
      "matrix": [
        1.0,
        0.0,
        0.0,
        0.0,
        0.0,
        -1.6292067939183141e-07,
        -0.9999999999999868,
        0.0,
        0.0,
        0.9999999999999868,
        -1.6292067939183141e-07,
        0.0,
        0.0,
        0.0,
        0.0,
        1.0
      ],
      "name": "panasonic_sa-pm02_player"
    },
    {
      "mesh": 0,
      "name": "panasonic_sa-pm02_player_panasonic_sa-pm02-player_0"
    },
    {
      "children": [
        6
      ],
      "matrix": [
        1.0,
        0.0,
        0.0,
        0.0,
        0.0,
        1.0,
        -2.646977960169688e-23,
        0.0,
        0.0,
        2.646977960169688e-23,
        1.0,
        0.0,
        -0.1606999933719635,
        0.0,
        0.0,
        1.0
      ],
      "name": "panasonic_sa-pm02_speaker-l"
    },
    {
      "mesh": 1,
      "name": "panasonic_sa-pm02_speaker-l_panasonic_sa-pm02-speaker_0"
    },
    {
      "children": [
        8
      ],
      "matrix": [
        1.0,
        0.0,
        0.0,
        0.0,
        0.0,
        1.0,
        -2.646977960169688e-23,
        0.0,
        0.0,
        2.646977960169688e-23,
        1.0,
        0.0,
        0.1606999933719635,
        0.0,
        0.0,
        1.0
      ],
      "name": "panasonic_sa-pm02_speaker-r"
    },
    {
      "mesh": 2,
      "name": "panasonic_sa-pm02_speaker-r_panasonic_sa-pm02-speaker_0"
    }
  ],
  "samplers": [
    {
      "magFilter": 9729,
      "minFilter": 9987,
      "wrapS": 10497,
      "wrapT": 10497
    }
  ],
  "scene": 0,
  "scenes": [
    {
      "name": "Sketchfab_Scene",
      "nodes": [
        0
      ]
    }
  ],
  "textures": [
    {
      "sampler": 0,
      "source": 0
    },
    {
      "sampler": 0,
      "source": 1
    },
    {
      "sampler": 0,
      "source": 2
    },
    {
      "sampler": 0,
      "source": 3
    },
    {
      "sampler": 0,
      "source": 4
    },
    {
      "sampler": 0,
      "source": 5
    },
    {
      "sampler": 0,
      "source": 6
    },
    {
      "sampler": 0,
      "source": 7
    }
  ]
}
